<svg xmlns="http://www.w3.org/2000/svg" version="1.1" xmlns:xlink="http://www.w3.org/1999/xlink" xmlns:svgjs="http://svgjs.dev/svgjs" width="2000" height="1500" viewBox="0 0 2000 1500"><rect width="2000" height="1500" fill="#ffffff"></rect><g transform="matrix(0.75,0,0,0.75,248.53540971449763,35.20161290322574)"><svg viewBox="0 0 261 248" data-background-color="#070f2b" preserveAspectRatio="xMidYMid meet" height="1900" width="2000" xmlns="http://www.w3.org/2000/svg" xmlns:xlink="http://www.w3.org/1999/xlink"><g id="tight-bounds" transform="matrix(1,0,0,1,0.25483870967741495,0.4000000000000057)"><svg viewBox="0 0 260.49032258064517 247.2" height="247.2" width="260.49032258064517"><g><svg viewBox="0 0 260.49032258064517 247.2" height="247.2" width="260.49032258064517"><g><svg viewBox="0 0 260.49032258064517 247.2" height="247.2" width="260.49032258064517"><g id="textblocktransform"><svg viewBox="0 0 260.49032258064517 247.2" height="247.2" width="260.49032258064517" id="textblock"><g><svg viewBox="0 0 260.49032258064517 247.2" height="247.2" width="260.49032258064517"><g transform="matrix(1,0,0,1,0,0)"><svg width="260.49032258064517" viewBox="4.55 -36.5 39.2 37.2" height="247.2" data-palette-color="#fffae6"><path d="M9.2-36.5L9.2-0.95 4.55 0.7 4.55-34.75 9.2-36.5ZM36.65-36.5Q39.85-36.5 41.8-34.7 43.75-32.9 43.75-30L43.75-30Q43.75-27.7 42.52-25.25 41.3-22.8 39.3-20.95 37.3-19.1 35.1-18.45L35.1-18.45 34.6-19.35Q36.75-20.3 38.07-22.4 39.4-24.5 39.4-26.85L39.4-26.85Q39.4-29.85 37.6-31.68 35.8-33.5 32.8-33.5L32.8-33.5Q29.8-33.5 27.15-31.35 24.5-29.2 22.9-25.63 21.3-22.05 21.3-18L21.3-18Q21.3-13.6 22.65-10.25 24-6.9 26.47-5.08 28.95-3.25 32.15-3.25L32.15-3.25Q34.55-3.25 36.85-4.28 39.15-5.3 41.05-7.25L41.05-7.25 42.15-6.15Q36.85 0.55 29.6 0.55L29.6 0.55Q25.55 0.55 22.6-1.45 19.65-3.45 18.07-6.88 16.5-10.3 16.5-14.5L16.5-14.5Q16.5-20.65 19.22-25.68 21.95-30.7 26.6-33.6 31.25-36.5 36.65-36.5L36.65-36.5Z" opacity="1" transform="matrix(1,0,0,1,0,0)" fill="#000000" class="wordmark-text-0" data-fill-palette-color="primary" id="text-0"></path></svg></g></svg></g></svg></g></svg></g></svg></g><defs></defs></svg><rect width="260.49032258064517" height="247.2" fill="none" stroke="none" visibility="hidden"></rect></g></svg></g></svg>